<svg xmlns="http://www.w3.org/2000/svg" viewBox="0 0 820 700" width="820" height="700" font-family="Fredoka, sans-serif">

<g transform="translate(210,200) scale(1.0)"><ellipse cx="0" cy="30" rx="155" ry="20" fill="#E6E1D6" opacity="0.5"/><path d="M-158,-58 Q-158,-80 -132,-82 L-104,-82 Q-84,-140 -30,-144 L66,-144 Q114,-142 130,-86 L140,-82 Q160,-80 158,-58 L158,-20 Q158,-6 142,-6 L-142,-6 Q-158,-6 -158,-20 Z" fill="#2E8BFF"/><path d="M-150,-30 L150,-30 Q156,-30 156,-22 L156,-18 Q156,-6 142,-6 L-142,-6 Q-156,-6 -156,-18 L-156,-22 Q-156,-30 -150,-30 Z" fill="#1F6FE0" opacity="0.16"/><rect x="-92" y="-130" width="56" height="44" rx="14" fill="#EAF4FF" stroke="#1F6FE0" stroke-width="3" opacity="0.95"/><rect x="-24" y="-130" width="60" height="44" rx="14" fill="#EAF4FF" stroke="#1F6FE0" stroke-width="3" opacity="0.95"/><ellipse cx="150" cy="-44" rx="11" ry="14" fill="#FFC83D" stroke="#F0B021" stroke-width="3"/><ellipse cx="-152" cy="-44" rx="9" ry="12" fill="#FF5168" stroke="#E23B50" stroke-width="2" opacity="0.8"/><circle cx="-84.0" cy="-2.0" r="40.0" fill="#F6F8FC" stroke="#1F6FE0" stroke-width="5.2" stroke-dasharray="22.0 18.0" stroke-linecap="round"/><path d="M-100.8,-2.0 H-67.2 M-84.0,-18.8 V14.8" stroke="#1F6FE0" stroke-width="4.0" stroke-linecap="round" opacity="0.55"/><circle cx="88.0" cy="-2.0" r="40.0" fill="#F6F8FC" stroke="#1F6FE0" stroke-width="5.2" stroke-dasharray="22.0 18.0" stroke-linecap="round"/><path d="M71.2,-2.0 H104.8 M88.0,-18.8 V14.8" stroke="#1F6FE0" stroke-width="4.0" stroke-linecap="round" opacity="0.55"/></g><g transform="translate(610,200) scale(1.0)"><ellipse cx="0" cy="30" rx="155" ry="20" fill="#E6E1D6" opacity="0.5"/><path d="M-158,-58 Q-158,-80 -132,-82 L-104,-82 Q-84,-140 -30,-144 L66,-144 Q114,-142 130,-86 L140,-82 Q160,-80 158,-58 L158,-20 Q158,-6 142,-6 L-142,-6 Q-158,-6 -158,-20 Z" fill="#FF5168"/><path d="M-150,-30 L150,-30 Q156,-30 156,-22 L156,-18 Q156,-6 142,-6 L-142,-6 Q-156,-6 -156,-18 L-156,-22 Q-156,-30 -150,-30 Z" fill="#E23B50" opacity="0.16"/><rect x="-92" y="-130" width="56" height="44" rx="14" fill="#EAF4FF" stroke="#E23B50" stroke-width="3" opacity="0.95"/><rect x="-24" y="-130" width="60" height="44" rx="14" fill="#EAF4FF" stroke="#E23B50" stroke-width="3" opacity="0.95"/><ellipse cx="150" cy="-44" rx="11" ry="14" fill="#FFC83D" stroke="#F0B021" stroke-width="3"/><ellipse cx="-152" cy="-44" rx="9" ry="12" fill="#FF5168" stroke="#E23B50" stroke-width="2" opacity="0.8"/><circle cx="-84.0" cy="-2.0" r="40.0" fill="#F6F8FC" stroke="#E23B50" stroke-width="5.2" stroke-dasharray="22.0 18.0" stroke-linecap="round"/><path d="M-100.8,-2.0 H-67.2 M-84.0,-18.8 V14.8" stroke="#E23B50" stroke-width="4.0" stroke-linecap="round" opacity="0.55"/><circle cx="88.0" cy="-2.0" r="40.0" fill="#F6F8FC" stroke="#E23B50" stroke-width="5.2" stroke-dasharray="22.0 18.0" stroke-linecap="round"/><path d="M71.2,-2.0 H104.8 M88.0,-18.8 V14.8" stroke="#E23B50" stroke-width="4.0" stroke-linecap="round" opacity="0.55"/></g><g transform="translate(210,540) scale(1.0)"><ellipse cx="0" cy="30" rx="155" ry="20" fill="#E6E1D6" opacity="0.5"/><path d="M-158,-58 Q-158,-80 -132,-82 L-104,-82 Q-84,-140 -30,-144 L66,-144 Q114,-142 130,-86 L140,-82 Q160,-80 158,-58 L158,-20 Q158,-6 142,-6 L-142,-6 Q-158,-6 -158,-20 Z" fill="#FFC83D"/><path d="M-150,-30 L150,-30 Q156,-30 156,-22 L156,-18 Q156,-6 142,-6 L-142,-6 Q-156,-6 -156,-18 L-156,-22 Q-156,-30 -150,-30 Z" fill="#F0B021" opacity="0.16"/><rect x="-92" y="-130" width="56" height="44" rx="14" fill="#EAF4FF" stroke="#F0B021" stroke-width="3" opacity="0.95"/><rect x="-24" y="-130" width="60" height="44" rx="14" fill="#EAF4FF" stroke="#F0B021" stroke-width="3" opacity="0.95"/><ellipse cx="150" cy="-44" rx="11" ry="14" fill="#FFC83D" stroke="#F0B021" stroke-width="3"/><ellipse cx="-152" cy="-44" rx="9" ry="12" fill="#FF5168" stroke="#E23B50" stroke-width="2" opacity="0.8"/><circle cx="-84.0" cy="-2.0" r="40.0" fill="#F6F8FC" stroke="#F0B021" stroke-width="5.2" stroke-dasharray="22.0 18.0" stroke-linecap="round"/><path d="M-100.8,-2.0 H-67.2 M-84.0,-18.8 V14.8" stroke="#F0B021" stroke-width="4.0" stroke-linecap="round" opacity="0.55"/><circle cx="88.0" cy="-2.0" r="40.0" fill="#F6F8FC" stroke="#F0B021" stroke-width="5.2" stroke-dasharray="22.0 18.0" stroke-linecap="round"/><path d="M71.2,-2.0 H104.8 M88.0,-18.8 V14.8" stroke="#F0B021" stroke-width="4.0" stroke-linecap="round" opacity="0.55"/></g><g transform="translate(610,540) scale(1.0)"><ellipse cx="0" cy="30" rx="155" ry="20" fill="#E6E1D6" opacity="0.5"/><path d="M-158,-58 Q-158,-80 -132,-82 L-104,-82 Q-84,-140 -30,-144 L66,-144 Q114,-142 130,-86 L140,-82 Q160,-80 158,-58 L158,-20 Q158,-6 142,-6 L-142,-6 Q-158,-6 -158,-20 Z" fill="#34C76E"/><path d="M-150,-30 L150,-30 Q156,-30 156,-22 L156,-18 Q156,-6 142,-6 L-142,-6 Q-156,-6 -156,-18 L-156,-22 Q-156,-30 -150,-30 Z" fill="#22A455" opacity="0.16"/><rect x="-92" y="-130" width="56" height="44" rx="14" fill="#EAF4FF" stroke="#22A455" stroke-width="3" opacity="0.95"/><rect x="-24" y="-130" width="60" height="44" rx="14" fill="#EAF4FF" stroke="#22A455" stroke-width="3" opacity="0.95"/><ellipse cx="150" cy="-44" rx="11" ry="14" fill="#FFC83D" stroke="#F0B021" stroke-width="3"/><ellipse cx="-152" cy="-44" rx="9" ry="12" fill="#FF5168" stroke="#E23B50" stroke-width="2" opacity="0.8"/><circle cx="-84.0" cy="-2.0" r="40.0" fill="#F6F8FC" stroke="#22A455" stroke-width="5.2" stroke-dasharray="22.0 18.0" stroke-linecap="round"/><path d="M-100.8,-2.0 H-67.2 M-84.0,-18.8 V14.8" stroke="#22A455" stroke-width="4.0" stroke-linecap="round" opacity="0.55"/><circle cx="88.0" cy="-2.0" r="40.0" fill="#F6F8FC" stroke="#22A455" stroke-width="5.2" stroke-dasharray="22.0 18.0" stroke-linecap="round"/><path d="M71.2,-2.0 H104.8 M88.0,-18.8 V14.8" stroke="#22A455" stroke-width="4.0" stroke-linecap="round" opacity="0.55"/></g>
</svg>
