<svg xmlns="http://www.w3.org/2000/svg" viewBox="0 0 1180 590" width="1180" height="590" font-family="Fredoka, sans-serif">

<path d="M160,470 A430,430 0 0 1 1020,470" fill="none" stroke="#FF5168" stroke-width="60" opacity="0.16"/><path d="M225,470 A365,365 0 0 1 955,470" fill="none" stroke="#FFC83D" stroke-width="60" opacity="0.16"/><path d="M290,470 A300,300 0 0 1 890,470" fill="none" stroke="#34C76E" stroke-width="60" opacity="0.16"/><path d="M355,470 A235,235 0 0 1 825,470" fill="none" stroke="#2E8BFF" stroke-width="60" opacity="0.16"/><circle cx="962.3909236273087" cy="255.00000000000003" r="24" fill="#F6F8FC" stroke="#E23B50" stroke-width="3.1" stroke-dasharray="13.2 10.8" stroke-linecap="round"/><path d="M952.3109236273086,255.00000000000003 H972.4709236273087 M962.3909236273087,244.92000000000002 V265.08000000000004" stroke="#E23B50" stroke-width="3.0" stroke-linecap="round" opacity="0.55"/><circle cx="866.3986721652119" cy="140.60088945883945" r="24" fill="#F6F8FC" stroke="#E23B50" stroke-width="3.1" stroke-dasharray="13.2 10.8" stroke-linecap="round"/><path d="M856.3186721652119,140.60088945883945 H876.478672165212 M866.3986721652119,130.52088945883943 V150.68088945883946" stroke="#E23B50" stroke-width="3.0" stroke-linecap="round" opacity="0.55"/><circle cx="737.0686616300376" cy="65.9321730620594" r="24" fill="#F6F8FC" stroke="#E23B50" stroke-width="3.1" stroke-dasharray="13.2 10.8" stroke-linecap="round"/><path d="M726.9886616300375,65.9321730620594 H747.1486616300376 M737.0686616300376,55.85217306205941 V76.0121730620594" stroke="#E23B50" stroke-width="3.0" stroke-linecap="round" opacity="0.55"/><circle cx="590.0" cy="40.0" r="24" fill="#F6F8FC" stroke="#E23B50" stroke-width="3.1" stroke-dasharray="13.2 10.8" stroke-linecap="round"/><path d="M579.92,40.0 H600.08 M590.0,29.92 V50.08" stroke="#E23B50" stroke-width="3.0" stroke-linecap="round" opacity="0.55"/><circle cx="442.9313383699624" cy="65.93217306205935" r="24" fill="#F6F8FC" stroke="#E23B50" stroke-width="3.1" stroke-dasharray="13.2 10.8" stroke-linecap="round"/><path d="M432.85133836996243,65.93217306205935 H453.0113383699624 M442.9313383699624,55.85217306205935 V76.01217306205935" stroke="#E23B50" stroke-width="3.0" stroke-linecap="round" opacity="0.55"/><circle cx="313.6013278347881" cy="140.60088945883945" r="24" fill="#F6F8FC" stroke="#E23B50" stroke-width="3.1" stroke-dasharray="13.2 10.8" stroke-linecap="round"/><path d="M303.5213278347881,140.60088945883945 H323.6813278347881 M313.6013278347881,130.52088945883943 V150.68088945883946" stroke="#E23B50" stroke-width="3.0" stroke-linecap="round" opacity="0.55"/><circle cx="217.60907637269133" cy="255.00000000000003" r="24" fill="#F6F8FC" stroke="#E23B50" stroke-width="3.1" stroke-dasharray="13.2 10.8" stroke-linecap="round"/><path d="M207.52907637269132,255.00000000000003 H227.68907637269135 M217.60907637269133,244.92000000000002 V265.08000000000004" stroke="#E23B50" stroke-width="3.0" stroke-linecap="round" opacity="0.55"/><circle cx="906.0992723813201" cy="287.5" r="24" fill="#F6F8FC" stroke="#F0B021" stroke-width="3.1" stroke-dasharray="13.2 10.8" stroke-linecap="round"/><path d="M896.0192723813201,287.5 H916.1792723813202 M906.0992723813201,277.42 V297.58" stroke="#F0B021" stroke-width="3.0" stroke-linecap="round" opacity="0.55"/><circle cx="824.6174775355869" cy="190.393778261573" r="24" fill="#F6F8FC" stroke="#F0B021" stroke-width="3.1" stroke-dasharray="13.2 10.8" stroke-linecap="round"/><path d="M814.5374775355868,190.393778261573 H834.6974775355869 M824.6174775355869,180.313778261573 V200.47377826157302" stroke="#F0B021" stroke-width="3.0" stroke-linecap="round" opacity="0.55"/><circle cx="714.8373523138691" cy="127.01219341314345" r="24" fill="#F6F8FC" stroke="#F0B021" stroke-width="3.1" stroke-dasharray="13.2 10.8" stroke-linecap="round"/><path d="M704.7573523138691,127.01219341314345 H724.9173523138692 M714.8373523138691,116.93219341314345 V137.09219341314346" stroke="#F0B021" stroke-width="3.0" stroke-linecap="round" opacity="0.55"/><circle cx="590.0" cy="105.0" r="24" fill="#F6F8FC" stroke="#F0B021" stroke-width="3.1" stroke-dasharray="13.2 10.8" stroke-linecap="round"/><path d="M579.92,105.0 H600.08 M590.0,94.92 V115.08" stroke="#F0B021" stroke-width="3.0" stroke-linecap="round" opacity="0.55"/><circle cx="465.1626476861309" cy="127.01219341314345" r="24" fill="#F6F8FC" stroke="#F0B021" stroke-width="3.1" stroke-dasharray="13.2 10.8" stroke-linecap="round"/><path d="M455.08264768613094,127.01219341314345 H475.2426476861309 M465.1626476861309,116.93219341314345 V137.09219341314346" stroke="#F0B021" stroke-width="3.0" stroke-linecap="round" opacity="0.55"/><circle cx="355.3825224644131" cy="190.393778261573" r="24" fill="#F6F8FC" stroke="#F0B021" stroke-width="3.1" stroke-dasharray="13.2 10.8" stroke-linecap="round"/><path d="M345.30252246441313,190.393778261573 H365.4625224644131 M355.3825224644131,180.313778261573 V200.47377826157302" stroke="#F0B021" stroke-width="3.0" stroke-linecap="round" opacity="0.55"/><circle cx="273.90072761867987" cy="287.5" r="24" fill="#F6F8FC" stroke="#F0B021" stroke-width="3.1" stroke-dasharray="13.2 10.8" stroke-linecap="round"/><path d="M263.8207276186799,287.5 H283.98072761867985 M273.90072761867987,277.42 V297.58" stroke="#F0B021" stroke-width="3.0" stroke-linecap="round" opacity="0.55"/><circle cx="849.8076211353316" cy="320.0" r="24" fill="#F6F8FC" stroke="#22A455" stroke-width="3.1" stroke-dasharray="13.2 10.8" stroke-linecap="round"/><path d="M839.7276211353316,320.0 H859.8876211353316 M849.8076211353316,309.92 V330.08" stroke="#22A455" stroke-width="3.0" stroke-linecap="round" opacity="0.55"/><circle cx="782.8362829059618" cy="240.1866670643066" r="24" fill="#F6F8FC" stroke="#22A455" stroke-width="3.1" stroke-dasharray="13.2 10.8" stroke-linecap="round"/><path d="M772.7562829059617,240.1866670643066 H792.9162829059618 M782.8362829059618,230.10666706430658 V250.2666670643066" stroke="#22A455" stroke-width="3.0" stroke-linecap="round" opacity="0.55"/><circle cx="692.6060429977007" cy="188.0922137642275" r="24" fill="#F6F8FC" stroke="#22A455" stroke-width="3.1" stroke-dasharray="13.2 10.8" stroke-linecap="round"/><path d="M682.5260429977006,188.0922137642275 H702.6860429977007 M692.6060429977007,178.01221376422748 V198.1722137642275" stroke="#22A455" stroke-width="3.0" stroke-linecap="round" opacity="0.55"/><circle cx="590.0" cy="170.0" r="24" fill="#F6F8FC" stroke="#22A455" stroke-width="3.1" stroke-dasharray="13.2 10.8" stroke-linecap="round"/><path d="M579.92,170.0 H600.08 M590.0,159.92 V180.08" stroke="#22A455" stroke-width="3.0" stroke-linecap="round" opacity="0.55"/><circle cx="487.3939570022994" cy="188.0922137642275" r="24" fill="#F6F8FC" stroke="#22A455" stroke-width="3.1" stroke-dasharray="13.2 10.8" stroke-linecap="round"/><path d="M477.3139570022994,188.0922137642275 H497.47395700229936 M487.3939570022994,178.01221376422748 V198.1722137642275" stroke="#22A455" stroke-width="3.0" stroke-linecap="round" opacity="0.55"/><circle cx="397.1637170940382" cy="240.1866670643066" r="24" fill="#F6F8FC" stroke="#22A455" stroke-width="3.1" stroke-dasharray="13.2 10.8" stroke-linecap="round"/><path d="M387.0837170940382,240.1866670643066 H407.2437170940382 M397.1637170940382,230.10666706430658 V250.2666670643066" stroke="#22A455" stroke-width="3.0" stroke-linecap="round" opacity="0.55"/><circle cx="330.1923788646684" cy="320.0" r="24" fill="#F6F8FC" stroke="#22A455" stroke-width="3.1" stroke-dasharray="13.2 10.8" stroke-linecap="round"/><path d="M320.1123788646684,320.0 H340.2723788646684 M330.1923788646684,309.92 V330.08" stroke="#22A455" stroke-width="3.0" stroke-linecap="round" opacity="0.55"/><circle cx="793.5159698893431" cy="352.5" r="24" fill="#F6F8FC" stroke="#1F6FE0" stroke-width="3.1" stroke-dasharray="13.2 10.8" stroke-linecap="round"/><path d="M783.435969889343,352.5 H803.5959698893431 M793.5159698893431,342.42 V362.58" stroke="#1F6FE0" stroke-width="3.0" stroke-linecap="round" opacity="0.55"/><circle cx="741.0550882763367" cy="289.9795558670402" r="24" fill="#F6F8FC" stroke="#1F6FE0" stroke-width="3.1" stroke-dasharray="13.2 10.8" stroke-linecap="round"/><path d="M730.9750882763367,289.9795558670402 H751.1350882763368 M741.0550882763367,279.8995558670402 V300.05955586704016" stroke="#1F6FE0" stroke-width="3.0" stroke-linecap="round" opacity="0.55"/><circle cx="670.3747336815322" cy="249.17223411531154" r="24" fill="#F6F8FC" stroke="#1F6FE0" stroke-width="3.1" stroke-dasharray="13.2 10.8" stroke-linecap="round"/><path d="M660.2947336815322,249.17223411531154 H680.4547336815323 M670.3747336815322,239.09223411531153 V259.2522341153115" stroke="#1F6FE0" stroke-width="3.0" stroke-linecap="round" opacity="0.55"/><circle cx="590.0" cy="235.0" r="24" fill="#F6F8FC" stroke="#1F6FE0" stroke-width="3.1" stroke-dasharray="13.2 10.8" stroke-linecap="round"/><path d="M579.92,235.0 H600.08 M590.0,224.92 V245.08" stroke="#1F6FE0" stroke-width="3.0" stroke-linecap="round" opacity="0.55"/><circle cx="509.6252663184679" cy="249.1722341153115" r="24" fill="#F6F8FC" stroke="#1F6FE0" stroke-width="3.1" stroke-dasharray="13.2 10.8" stroke-linecap="round"/><path d="M499.5452663184679,249.1722341153115 H519.7052663184679 M509.6252663184679,239.0922341153115 V259.2522341153115" stroke="#1F6FE0" stroke-width="3.0" stroke-linecap="round" opacity="0.55"/><circle cx="438.94491172366327" cy="289.9795558670402" r="24" fill="#F6F8FC" stroke="#1F6FE0" stroke-width="3.1" stroke-dasharray="13.2 10.8" stroke-linecap="round"/><path d="M428.8649117236633,289.9795558670402 H449.02491172366325 M438.94491172366327,279.8995558670402 V300.05955586704016" stroke="#1F6FE0" stroke-width="3.0" stroke-linecap="round" opacity="0.55"/><circle cx="386.48403011065693" cy="352.5" r="24" fill="#F6F8FC" stroke="#1F6FE0" stroke-width="3.1" stroke-dasharray="13.2 10.8" stroke-linecap="round"/><path d="M376.40403011065695,352.5 H396.5640301106569 M386.48403011065693,342.42 V362.58" stroke="#1F6FE0" stroke-width="3.0" stroke-linecap="round" opacity="0.55"/><g transform="translate(10.00,377.48) scale(2.4194)"><path d="M24,78 C10,78 2,66 8,54 C0,44 6,28 22,30 C26,14 48,8 60,20 C70,6 98,8 102,26 C118,26 122,46 110,56 C118,66 110,78 96,78 Z" fill="#FFFFFF" stroke="#B9C7DE" stroke-width="4.5" stroke-linejoin="round"/></g><g transform="translate(870.00,377.48) scale(2.4194)"><path d="M24,78 C10,78 2,66 8,54 C0,44 6,28 22,30 C26,14 48,8 60,20 C70,6 98,8 102,26 C118,26 122,46 110,56 C118,66 110,78 96,78 Z" fill="#FFFFFF" stroke="#B9C7DE" stroke-width="4.5" stroke-linejoin="round"/></g>
</svg>
