<svg xmlns="http://www.w3.org/2000/svg" viewBox="0 0 760 840" width="760" height="840" font-family="Fredoka, sans-serif">

<ellipse cx="380" cy="800" rx="150" ry="26" fill="#E6E1D6" opacity="0.55"/><rect x="364" y="600" width="32" height="200" rx="12" fill="#3A3A4A" opacity="0.85"/><rect x="250" y="70" width="260" height="540" rx="60" fill="#3A3A4A"/><rect x="276" y="96" width="208" height="488" rx="46" fill="#4A4A5E"/><path d="M314,138 q66,-30 132,0 l0,16 q-66,-26 -132,0 Z" fill="#3A3A4A"/><circle cx="380" cy="210" r="58" fill="#F6F8FC" stroke="#E23B50" stroke-width="7.5" stroke-dasharray="31.9 26.1" stroke-linecap="round"/><path d="M355.64,210 H404.36 M380,185.64 V234.36" stroke="#E23B50" stroke-width="5.8" stroke-linecap="round" opacity="0.55"/><path d="M314,268 q66,-30 132,0 l0,16 q-66,-26 -132,0 Z" fill="#3A3A4A"/><circle cx="380" cy="340" r="58" fill="#F6F8FC" stroke="#F0B021" stroke-width="7.5" stroke-dasharray="31.9 26.1" stroke-linecap="round"/><path d="M355.64,340 H404.36 M380,315.64 V364.36" stroke="#F0B021" stroke-width="5.8" stroke-linecap="round" opacity="0.55"/><path d="M314,398 q66,-30 132,0 l0,16 q-66,-26 -132,0 Z" fill="#3A3A4A"/><circle cx="380" cy="470" r="58" fill="#F6F8FC" stroke="#22A455" stroke-width="7.5" stroke-dasharray="31.9 26.1" stroke-linecap="round"/><path d="M355.64,470 H404.36 M380,445.64 V494.36" stroke="#22A455" stroke-width="5.8" stroke-linecap="round" opacity="0.55"/>
</svg>
