<svg xmlns="http://www.w3.org/2000/svg" viewBox="0 0 860 980" width="860" height="980" font-family="Fredoka, sans-serif">

<path d="M155.0,140.0 L101.0,140.0 L73.4,136.4 L55.4,167.6" fill="none" stroke="#3A3A4A" stroke-width="7.8" stroke-linecap="round" stroke-linejoin="round"/><path d="M155.0,224.0 L101.0,224.0 L73.4,220.4 L55.4,251.6" fill="none" stroke="#3A3A4A" stroke-width="7.8" stroke-linecap="round" stroke-linejoin="round"/><path d="M155.0,305.0 L101.0,305.0 L73.4,301.4 L55.4,332.6" fill="none" stroke="#3A3A4A" stroke-width="7.8" stroke-linecap="round" stroke-linejoin="round"/><path d="M305.0,140.0 L359.0,140.0 L386.6,136.4 L404.6,167.6" fill="none" stroke="#3A3A4A" stroke-width="7.8" stroke-linecap="round" stroke-linejoin="round"/><path d="M305.0,224.0 L359.0,224.0 L386.6,220.4 L404.6,251.6" fill="none" stroke="#3A3A4A" stroke-width="7.8" stroke-linecap="round" stroke-linejoin="round"/><path d="M305.0,305.0 L359.0,305.0 L386.6,301.4 L404.6,332.6" fill="none" stroke="#3A3A4A" stroke-width="7.8" stroke-linecap="round" stroke-linejoin="round"/><path d="M195.2,116.0 C174.8,68.0 158.0,50.0 153.2,39.2" fill="none" stroke="#3A3A4A" stroke-width="5.4" stroke-linecap="round"/><path d="M264.8,116.0 C285.2,68.0 302.0,50.0 306.8,39.2" fill="none" stroke="#3A3A4A" stroke-width="5.4" stroke-linecap="round"/><circle cx="153.2" cy="39.2" r="9.0" fill="#3A3A4A"/><circle cx="306.8" cy="39.2" r="9.0" fill="#3A3A4A"/><ellipse cx="230" cy="230" rx="150" ry="156.0" fill="#FF5168"/><path d="M140.0,116.0 a90.0,76.8 0 0 1 180.0,0 C320.0,134.0 140.0,134.0 140.0,116.0 Z" fill="#3A3A4A"/><circle cx="195.2" cy="100.4" r="12.0" fill="#fff"/><circle cx="264.8" cy="100.4" r="12.0" fill="#fff"/><circle cx="195.2" cy="102.8" r="5.4" fill="#3A3A4A"/><circle cx="264.8" cy="102.8" r="5.4" fill="#3A3A4A"/><circle cx="192.8" cy="98.0" r="1.9" fill="#fff"/><circle cx="262.4" cy="98.0" r="1.9" fill="#fff"/><path d="M230,130.4 L230,370.4" stroke="#E23B50" stroke-width="6.6" stroke-linecap="round"/><circle cx="130.0" cy="192.0" r="40.0" fill="#F6F8FC" stroke="#3A3A4A" stroke-width="5.2" stroke-dasharray="22.0 18.0" stroke-linecap="round"/><circle cx="330.0" cy="192.0" r="40.0" fill="#F6F8FC" stroke="#3A3A4A" stroke-width="5.2" stroke-dasharray="22.0 18.0" stroke-linecap="round"/><circle cx="130.0" cy="302.0" r="40.0" fill="#F6F8FC" stroke="#3A3A4A" stroke-width="5.2" stroke-dasharray="22.0 18.0" stroke-linecap="round"/><circle cx="330.0" cy="302.0" r="40.0" fill="#F6F8FC" stroke="#3A3A4A" stroke-width="5.2" stroke-dasharray="22.0 18.0" stroke-linecap="round"/><circle cx="230" cy="446.0" r="32" fill="#34C76E"/><text x="230" y="459.0" text-anchor="middle" font-size="40" font-weight="700" fill="#fff" font-family="Fredoka, sans-serif">4</text><path d="M555.0,140.0 L501.0,140.0 L473.4,136.4 L455.4,167.6" fill="none" stroke="#3A3A4A" stroke-width="7.8" stroke-linecap="round" stroke-linejoin="round"/><path d="M555.0,224.0 L501.0,224.0 L473.4,220.4 L455.4,251.6" fill="none" stroke="#3A3A4A" stroke-width="7.8" stroke-linecap="round" stroke-linejoin="round"/><path d="M555.0,305.0 L501.0,305.0 L473.4,301.4 L455.4,332.6" fill="none" stroke="#3A3A4A" stroke-width="7.8" stroke-linecap="round" stroke-linejoin="round"/><path d="M705.0,140.0 L759.0,140.0 L786.6,136.4 L804.6,167.6" fill="none" stroke="#3A3A4A" stroke-width="7.8" stroke-linecap="round" stroke-linejoin="round"/><path d="M705.0,224.0 L759.0,224.0 L786.6,220.4 L804.6,251.6" fill="none" stroke="#3A3A4A" stroke-width="7.8" stroke-linecap="round" stroke-linejoin="round"/><path d="M705.0,305.0 L759.0,305.0 L786.6,301.4 L804.6,332.6" fill="none" stroke="#3A3A4A" stroke-width="7.8" stroke-linecap="round" stroke-linejoin="round"/><path d="M595.2,116.0 C574.8,68.0 558.0,50.0 553.2,39.2" fill="none" stroke="#3A3A4A" stroke-width="5.4" stroke-linecap="round"/><path d="M664.8,116.0 C685.2,68.0 702.0,50.0 706.8,39.2" fill="none" stroke="#3A3A4A" stroke-width="5.4" stroke-linecap="round"/><circle cx="553.2" cy="39.2" r="9.0" fill="#3A3A4A"/><circle cx="706.8" cy="39.2" r="9.0" fill="#3A3A4A"/><ellipse cx="630" cy="230" rx="150" ry="156.0" fill="#FF5168"/><path d="M540.0,116.0 a90.0,76.8 0 0 1 180.0,0 C720.0,134.0 540.0,134.0 540.0,116.0 Z" fill="#3A3A4A"/><circle cx="595.2" cy="100.4" r="12.0" fill="#fff"/><circle cx="664.8" cy="100.4" r="12.0" fill="#fff"/><circle cx="595.2" cy="102.8" r="5.4" fill="#3A3A4A"/><circle cx="664.8" cy="102.8" r="5.4" fill="#3A3A4A"/><circle cx="592.8" cy="98.0" r="1.9" fill="#fff"/><circle cx="662.4" cy="98.0" r="1.9" fill="#fff"/><path d="M630,130.4 L630,370.4" stroke="#E23B50" stroke-width="6.6" stroke-linecap="round"/><circle cx="525.0" cy="192.0" r="40.0" fill="#F6F8FC" stroke="#3A3A4A" stroke-width="5.2" stroke-dasharray="22.0 18.0" stroke-linecap="round"/><circle cx="630.0" cy="192.0" r="40.0" fill="#F6F8FC" stroke="#3A3A4A" stroke-width="5.2" stroke-dasharray="22.0 18.0" stroke-linecap="round"/><circle cx="735.0" cy="192.0" r="40.0" fill="#F6F8FC" stroke="#3A3A4A" stroke-width="5.2" stroke-dasharray="22.0 18.0" stroke-linecap="round"/><circle cx="572.0" cy="304.0" r="40.0" fill="#F6F8FC" stroke="#3A3A4A" stroke-width="5.2" stroke-dasharray="22.0 18.0" stroke-linecap="round"/><circle cx="688.0" cy="304.0" r="40.0" fill="#F6F8FC" stroke="#3A3A4A" stroke-width="5.2" stroke-dasharray="22.0 18.0" stroke-linecap="round"/><circle cx="630" cy="446.0" r="32" fill="#9B6DD6"/><text x="630" y="459.0" text-anchor="middle" font-size="40" font-weight="700" fill="#fff" font-family="Fredoka, sans-serif">5</text><path d="M355.0,610.0 L301.0,610.0 L273.4,606.4 L255.4,637.6" fill="none" stroke="#3A3A4A" stroke-width="7.8" stroke-linecap="round" stroke-linejoin="round"/><path d="M355.0,694.0 L301.0,694.0 L273.4,690.4 L255.4,721.6" fill="none" stroke="#3A3A4A" stroke-width="7.8" stroke-linecap="round" stroke-linejoin="round"/><path d="M355.0,775.0 L301.0,775.0 L273.4,771.4 L255.4,802.6" fill="none" stroke="#3A3A4A" stroke-width="7.8" stroke-linecap="round" stroke-linejoin="round"/><path d="M505.0,610.0 L559.0,610.0 L586.6,606.4 L604.6,637.6" fill="none" stroke="#3A3A4A" stroke-width="7.8" stroke-linecap="round" stroke-linejoin="round"/><path d="M505.0,694.0 L559.0,694.0 L586.6,690.4 L604.6,721.6" fill="none" stroke="#3A3A4A" stroke-width="7.8" stroke-linecap="round" stroke-linejoin="round"/><path d="M505.0,775.0 L559.0,775.0 L586.6,771.4 L604.6,802.6" fill="none" stroke="#3A3A4A" stroke-width="7.8" stroke-linecap="round" stroke-linejoin="round"/><path d="M395.2,586.0 C374.8,538.0 358.0,520.0 353.2,509.2" fill="none" stroke="#3A3A4A" stroke-width="5.4" stroke-linecap="round"/><path d="M464.8,586.0 C485.2,538.0 502.0,520.0 506.8,509.2" fill="none" stroke="#3A3A4A" stroke-width="5.4" stroke-linecap="round"/><circle cx="353.2" cy="509.2" r="9.0" fill="#3A3A4A"/><circle cx="506.8" cy="509.2" r="9.0" fill="#3A3A4A"/><ellipse cx="430" cy="700" rx="150" ry="156.0" fill="#FF5168"/><path d="M340.0,586.0 a90.0,76.8 0 0 1 180.0,0 C520.0,604.0 340.0,604.0 340.0,586.0 Z" fill="#3A3A4A"/><circle cx="395.2" cy="570.4" r="12.0" fill="#fff"/><circle cx="464.8" cy="570.4" r="12.0" fill="#fff"/><circle cx="395.2" cy="572.8" r="5.4" fill="#3A3A4A"/><circle cx="464.8" cy="572.8" r="5.4" fill="#3A3A4A"/><circle cx="392.8" cy="568.0" r="1.9" fill="#fff"/><circle cx="462.4" cy="568.0" r="1.9" fill="#fff"/><path d="M430,600.4 L430,840.4" stroke="#E23B50" stroke-width="6.6" stroke-linecap="round"/><circle cx="325.0" cy="658.0" r="40.0" fill="#F6F8FC" stroke="#3A3A4A" stroke-width="5.2" stroke-dasharray="22.0 18.0" stroke-linecap="round"/><circle cx="430.0" cy="658.0" r="40.0" fill="#F6F8FC" stroke="#3A3A4A" stroke-width="5.2" stroke-dasharray="22.0 18.0" stroke-linecap="round"/><circle cx="535.0" cy="658.0" r="40.0" fill="#F6F8FC" stroke="#3A3A4A" stroke-width="5.2" stroke-dasharray="22.0 18.0" stroke-linecap="round"/><circle cx="325.0" cy="772.0" r="40.0" fill="#F6F8FC" stroke="#3A3A4A" stroke-width="5.2" stroke-dasharray="22.0 18.0" stroke-linecap="round"/><circle cx="430.0" cy="772.0" r="40.0" fill="#F6F8FC" stroke="#3A3A4A" stroke-width="5.2" stroke-dasharray="22.0 18.0" stroke-linecap="round"/><circle cx="535.0" cy="772.0" r="40.0" fill="#F6F8FC" stroke="#3A3A4A" stroke-width="5.2" stroke-dasharray="22.0 18.0" stroke-linecap="round"/><circle cx="430" cy="916.0" r="32" fill="#FF9F43"/><text x="430" y="929.0" text-anchor="middle" font-size="40" font-weight="700" fill="#fff" font-family="Fredoka, sans-serif">6</text>
</svg>
