<svg xmlns="http://www.w3.org/2000/svg" viewBox="0 0 500 1000" width="500" height="1000" font-family="Fredoka, sans-serif">

<path d="M250,-40 L380,90 L250,220 L120,90 Z" fill="#EAF4FF" stroke="#3A3A4A" stroke-width="6"/><path d="M250,-40 L250,220 M120,90 L380,90" stroke="#3A3A4A" stroke-width="5" opacity="0.5"/><path d="M185.0,25.0 L315.0,155.0 M315.0,25.0 L185.0,155.0" stroke="#3A3A4A" stroke-width="0"/><path d="M250,-40 L380,90 L250,90 Z" fill="#FF5168" opacity="0.7"/><path d="M380,90 L250,220 L250,90 Z" fill="#2E8BFF" opacity="0.7"/><path d="M250,220 L120,90 L250,90 Z" fill="#FFC83D" opacity="0.7"/><path d="M120,90 L250,-40 L250,90 Z" fill="#34C76E" opacity="0.7"/><path d="M250,220 Q250,250 222,280" fill="none" stroke="#B5774A" stroke-width="6"/><path d="M222,280 Q250,328 278,376" fill="none" stroke="#B5774A" stroke-width="6"/><path d="M278,376 Q250,424 222,472" fill="none" stroke="#B5774A" stroke-width="6"/><path d="M222,472 Q250,520 278,568" fill="none" stroke="#B5774A" stroke-width="6"/><path d="M278,568 Q250,616 222,664" fill="none" stroke="#B5774A" stroke-width="6"/><path d="M222,664 Q250,712 278,760" fill="none" stroke="#B5774A" stroke-width="6"/><circle cx="222.0" cy="280.0" r="40.0" fill="#F6F8FC" stroke="#F08A23" stroke-width="5.2" stroke-dasharray="22.0 18.0" stroke-linecap="round"/><path d="M205.2,280.0 H238.8 M222.0,263.2 V296.8" stroke="#F08A23" stroke-width="4.0" stroke-linecap="round" opacity="0.55"/><circle cx="278.0" cy="376.0" r="40.0" fill="#F6F8FC" stroke="#F08A23" stroke-width="5.2" stroke-dasharray="22.0 18.0" stroke-linecap="round"/><path d="M261.2,376.0 H294.8 M278.0,359.2 V392.8" stroke="#F08A23" stroke-width="4.0" stroke-linecap="round" opacity="0.55"/><circle cx="222.0" cy="472.0" r="40.0" fill="#F6F8FC" stroke="#F08A23" stroke-width="5.2" stroke-dasharray="22.0 18.0" stroke-linecap="round"/><path d="M205.2,472.0 H238.8 M222.0,455.2 V488.8" stroke="#F08A23" stroke-width="4.0" stroke-linecap="round" opacity="0.55"/><circle cx="278.0" cy="568.0" r="40.0" fill="#F6F8FC" stroke="#F08A23" stroke-width="5.2" stroke-dasharray="22.0 18.0" stroke-linecap="round"/><path d="M261.2,568.0 H294.8 M278.0,551.2 V584.8" stroke="#F08A23" stroke-width="4.0" stroke-linecap="round" opacity="0.55"/><circle cx="222.0" cy="664.0" r="40.0" fill="#F6F8FC" stroke="#F08A23" stroke-width="5.2" stroke-dasharray="22.0 18.0" stroke-linecap="round"/><path d="M205.2,664.0 H238.8 M222.0,647.2 V680.8" stroke="#F08A23" stroke-width="4.0" stroke-linecap="round" opacity="0.55"/><circle cx="278.0" cy="760.0" r="40.0" fill="#F6F8FC" stroke="#F08A23" stroke-width="5.2" stroke-dasharray="22.0 18.0" stroke-linecap="round"/><path d="M261.2,760.0 H294.8 M278.0,743.2 V776.8" stroke="#F08A23" stroke-width="4.0" stroke-linecap="round" opacity="0.55"/>
</svg>
