<svg xmlns="http://www.w3.org/2000/svg" viewBox="0 0 880 420" width="880" height="420" font-family="Fredoka, sans-serif">

<path d="M20,250 H705" stroke="#D9D2C4" stroke-width="16" stroke-linecap="round"/><g transform="translate(95,250) scale(0.52)"><ellipse cx="0" cy="30" rx="155" ry="20" fill="#E6E1D6" opacity="0.5"/><path d="M-158,-58 Q-158,-80 -132,-82 L-104,-82 Q-84,-140 -30,-144 L66,-144 Q114,-142 130,-86 L140,-82 Q160,-80 158,-58 L158,-20 Q158,-6 142,-6 L-142,-6 Q-158,-6 -158,-20 Z" fill="#2E8BFF"/><path d="M-150,-30 L150,-30 Q156,-30 156,-22 L156,-18 Q156,-6 142,-6 L-142,-6 Q-156,-6 -156,-18 L-156,-22 Q-156,-30 -150,-30 Z" fill="#1F6FE0" opacity="0.16"/><rect x="-92" y="-130" width="56" height="44" rx="14" fill="#EAF4FF" stroke="#1F6FE0" stroke-width="3" opacity="0.95"/><rect x="-24" y="-130" width="60" height="44" rx="14" fill="#EAF4FF" stroke="#1F6FE0" stroke-width="3" opacity="0.95"/><ellipse cx="150" cy="-44" rx="11" ry="14" fill="#FFC83D" stroke="#F0B021" stroke-width="3"/><ellipse cx="-152" cy="-44" rx="9" ry="12" fill="#FF5168" stroke="#E23B50" stroke-width="2" opacity="0.8"/><circle cx="-84" cy="-2" r="40" fill="#3A3A4A"/><circle cx="-84" cy="-2" r="17" fill="#fff"/><circle cx="-84" cy="-2" r="6" fill="#3A3A4A"/><circle cx="88" cy="-2" r="40" fill="#3A3A4A"/><circle cx="88" cy="-2" r="17" fill="#fff"/><circle cx="88" cy="-2" r="6" fill="#3A3A4A"/></g><g transform="translate(245,250) scale(0.52)"><ellipse cx="0" cy="30" rx="155" ry="20" fill="#E6E1D6" opacity="0.5"/><path d="M-158,-58 Q-158,-80 -132,-82 L-104,-82 Q-84,-140 -30,-144 L66,-144 Q114,-142 130,-86 L140,-82 Q160,-80 158,-58 L158,-20 Q158,-6 142,-6 L-142,-6 Q-158,-6 -158,-20 Z" fill="#FF5168"/><path d="M-150,-30 L150,-30 Q156,-30 156,-22 L156,-18 Q156,-6 142,-6 L-142,-6 Q-156,-6 -156,-18 L-156,-22 Q-156,-30 -150,-30 Z" fill="#E23B50" opacity="0.16"/><rect x="-92" y="-130" width="56" height="44" rx="14" fill="#EAF4FF" stroke="#E23B50" stroke-width="3" opacity="0.95"/><rect x="-24" y="-130" width="60" height="44" rx="14" fill="#EAF4FF" stroke="#E23B50" stroke-width="3" opacity="0.95"/><ellipse cx="150" cy="-44" rx="11" ry="14" fill="#FFC83D" stroke="#F0B021" stroke-width="3"/><ellipse cx="-152" cy="-44" rx="9" ry="12" fill="#FF5168" stroke="#E23B50" stroke-width="2" opacity="0.8"/><circle cx="-84" cy="-2" r="40" fill="#3A3A4A"/><circle cx="-84" cy="-2" r="17" fill="#fff"/><circle cx="-84" cy="-2" r="6" fill="#3A3A4A"/><circle cx="88" cy="-2" r="40" fill="#3A3A4A"/><circle cx="88" cy="-2" r="17" fill="#fff"/><circle cx="88" cy="-2" r="6" fill="#3A3A4A"/></g><circle cx="370.0" cy="250.0" r="40.0" fill="#F6F8FC" stroke="#C7CCD8" stroke-width="5.2" stroke-dasharray="22.0 18.0" stroke-linecap="round"/><path d="M353.2,250.0 H386.8 M370.0,233.2 V266.8" stroke="#C7CCD8" stroke-width="4.0" stroke-linecap="round" opacity="0.55"/><circle cx="462.0" cy="250.0" r="40.0" fill="#F6F8FC" stroke="#C7CCD8" stroke-width="5.2" stroke-dasharray="22.0 18.0" stroke-linecap="round"/><path d="M445.2,250.0 H478.8 M462.0,233.2 V266.8" stroke="#C7CCD8" stroke-width="4.0" stroke-linecap="round" opacity="0.55"/><circle cx="554.0" cy="250.0" r="40.0" fill="#F6F8FC" stroke="#C7CCD8" stroke-width="5.2" stroke-dasharray="22.0 18.0" stroke-linecap="round"/><path d="M537.2,250.0 H570.8 M554.0,233.2 V266.8" stroke="#C7CCD8" stroke-width="4.0" stroke-linecap="round" opacity="0.55"/><circle cx="646.0" cy="250.0" r="40.0" fill="#F6F8FC" stroke="#C7CCD8" stroke-width="5.2" stroke-dasharray="22.0 18.0" stroke-linecap="round"/><path d="M629.2,250.0 H662.8 M646.0,233.2 V266.8" stroke="#C7CCD8" stroke-width="4.0" stroke-linecap="round" opacity="0.55"/><rect x="694" y="172" width="156" height="120" rx="8" fill="#FFE2A8" stroke="#925C36" stroke-width="5"/><path d="M676,172 L772,92 L868,172 Z" fill="#FF5168" stroke="#E23B50" stroke-width="5" stroke-linejoin="round"/><rect x="746" y="224" width="52" height="68" rx="8" fill="#B5774A"/><rect x="802" y="194" width="38" height="38" rx="6" fill="#EAF4FF" stroke="#925C36" stroke-width="3"/>
</svg>
