<svg xmlns="http://www.w3.org/2000/svg" viewBox="0 0 890 860" width="890" height="860" font-family="Fredoka, sans-serif">

<rect x="36" y="10" width="28" height="120" rx="14" fill="#F6CBA6" stroke="#E0AE85" stroke-width="3"/><rect x="29" y="102" width="132" height="96" rx="34" fill="#F6CBA6" stroke="#E0AE85" stroke-width="3"/><circle cx="80" cy="108" r="15" fill="#F6CBA6" stroke="#E0AE85" stroke-width="3"/><circle cx="110" cy="108" r="15" fill="#F6CBA6" stroke="#E0AE85" stroke-width="3"/><circle cx="140" cy="108" r="15" fill="#F6CBA6" stroke="#E0AE85" stroke-width="3"/><circle cx="35" cy="156" r="17" fill="#F6CBA6" stroke="#E0AE85" stroke-width="3"/><rect x="51" y="222" width="88" height="64" rx="14" fill="#fff" stroke="#3A3A4A" stroke-width="3"/><text x="95" y="270" text-anchor="middle" font-size="46" font-weight="700" fill="#3A3A4A" font-family="Fredoka, sans-serif">1</text><rect x="21" y="312" width="148" height="512" rx="22" fill="#fff" stroke="#3A3A4A" stroke-width="4"/><rect x="37" y="342" width="116" height="448" rx="12" fill="#F1ECFA"/><circle cx="95" cy="808" r="7" fill="none" stroke="#B8BECC" stroke-width="3"/><circle cx="95.0" cy="392.0" r="40.0" fill="#F6F8FC" stroke="#C7CCD8" stroke-width="5.2" stroke-dasharray="22.0 18.0" stroke-linecap="round"/><path d="M78.2,392.0 H111.8 M95.0,375.2 V408.8" stroke="#C7CCD8" stroke-width="4.0" stroke-linecap="round" opacity="0.55"/><rect x="211" y="10" width="28" height="120" rx="14" fill="#F6CBA6" stroke="#E0AE85" stroke-width="3"/><rect x="241" y="10" width="28" height="120" rx="14" fill="#F6CBA6" stroke="#E0AE85" stroke-width="3"/><rect x="204" y="102" width="132" height="96" rx="34" fill="#F6CBA6" stroke="#E0AE85" stroke-width="3"/><circle cx="285" cy="108" r="15" fill="#F6CBA6" stroke="#E0AE85" stroke-width="3"/><circle cx="315" cy="108" r="15" fill="#F6CBA6" stroke="#E0AE85" stroke-width="3"/><circle cx="210" cy="156" r="17" fill="#F6CBA6" stroke="#E0AE85" stroke-width="3"/><rect x="226" y="222" width="88" height="64" rx="14" fill="#fff" stroke="#3A3A4A" stroke-width="3"/><text x="270" y="270" text-anchor="middle" font-size="46" font-weight="700" fill="#3A3A4A" font-family="Fredoka, sans-serif">2</text><rect x="196" y="312" width="148" height="512" rx="22" fill="#fff" stroke="#3A3A4A" stroke-width="4"/><rect x="212" y="342" width="116" height="448" rx="12" fill="#F1ECFA"/><circle cx="270" cy="808" r="7" fill="none" stroke="#B8BECC" stroke-width="3"/><circle cx="270.0" cy="392.0" r="40.0" fill="#F6F8FC" stroke="#C7CCD8" stroke-width="5.2" stroke-dasharray="22.0 18.0" stroke-linecap="round"/><path d="M253.2,392.0 H286.8 M270.0,375.2 V408.8" stroke="#C7CCD8" stroke-width="4.0" stroke-linecap="round" opacity="0.55"/><circle cx="270.0" cy="478.0" r="40.0" fill="#F6F8FC" stroke="#C7CCD8" stroke-width="5.2" stroke-dasharray="22.0 18.0" stroke-linecap="round"/><path d="M253.2,478.0 H286.8 M270.0,461.2 V494.8" stroke="#C7CCD8" stroke-width="4.0" stroke-linecap="round" opacity="0.55"/><rect x="386" y="10" width="28" height="120" rx="14" fill="#F6CBA6" stroke="#E0AE85" stroke-width="3"/><rect x="416" y="10" width="28" height="120" rx="14" fill="#F6CBA6" stroke="#E0AE85" stroke-width="3"/><rect x="446" y="10" width="28" height="120" rx="14" fill="#F6CBA6" stroke="#E0AE85" stroke-width="3"/><rect x="379" y="102" width="132" height="96" rx="34" fill="#F6CBA6" stroke="#E0AE85" stroke-width="3"/><circle cx="490" cy="108" r="15" fill="#F6CBA6" stroke="#E0AE85" stroke-width="3"/><circle cx="385" cy="156" r="17" fill="#F6CBA6" stroke="#E0AE85" stroke-width="3"/><rect x="401" y="222" width="88" height="64" rx="14" fill="#fff" stroke="#3A3A4A" stroke-width="3"/><text x="445" y="270" text-anchor="middle" font-size="46" font-weight="700" fill="#3A3A4A" font-family="Fredoka, sans-serif">3</text><rect x="371" y="312" width="148" height="512" rx="22" fill="#fff" stroke="#3A3A4A" stroke-width="4"/><rect x="387" y="342" width="116" height="448" rx="12" fill="#F1ECFA"/><circle cx="445" cy="808" r="7" fill="none" stroke="#B8BECC" stroke-width="3"/><circle cx="445.0" cy="392.0" r="40.0" fill="#F6F8FC" stroke="#C7CCD8" stroke-width="5.2" stroke-dasharray="22.0 18.0" stroke-linecap="round"/><path d="M428.2,392.0 H461.8 M445.0,375.2 V408.8" stroke="#C7CCD8" stroke-width="4.0" stroke-linecap="round" opacity="0.55"/><circle cx="445.0" cy="478.0" r="40.0" fill="#F6F8FC" stroke="#C7CCD8" stroke-width="5.2" stroke-dasharray="22.0 18.0" stroke-linecap="round"/><path d="M428.2,478.0 H461.8 M445.0,461.2 V494.8" stroke="#C7CCD8" stroke-width="4.0" stroke-linecap="round" opacity="0.55"/><circle cx="445.0" cy="564.0" r="40.0" fill="#F6F8FC" stroke="#C7CCD8" stroke-width="5.2" stroke-dasharray="22.0 18.0" stroke-linecap="round"/><path d="M428.2,564.0 H461.8 M445.0,547.2 V580.8" stroke="#C7CCD8" stroke-width="4.0" stroke-linecap="round" opacity="0.55"/><rect x="561" y="10" width="28" height="120" rx="14" fill="#F6CBA6" stroke="#E0AE85" stroke-width="3"/><rect x="591" y="10" width="28" height="120" rx="14" fill="#F6CBA6" stroke="#E0AE85" stroke-width="3"/><rect x="621" y="10" width="28" height="120" rx="14" fill="#F6CBA6" stroke="#E0AE85" stroke-width="3"/><rect x="651" y="10" width="28" height="120" rx="14" fill="#F6CBA6" stroke="#E0AE85" stroke-width="3"/><rect x="554" y="102" width="132" height="96" rx="34" fill="#F6CBA6" stroke="#E0AE85" stroke-width="3"/><circle cx="560" cy="156" r="17" fill="#F6CBA6" stroke="#E0AE85" stroke-width="3"/><rect x="576" y="222" width="88" height="64" rx="14" fill="#fff" stroke="#3A3A4A" stroke-width="3"/><text x="620" y="270" text-anchor="middle" font-size="46" font-weight="700" fill="#3A3A4A" font-family="Fredoka, sans-serif">4</text><rect x="546" y="312" width="148" height="512" rx="22" fill="#fff" stroke="#3A3A4A" stroke-width="4"/><rect x="562" y="342" width="116" height="448" rx="12" fill="#F1ECFA"/><circle cx="620" cy="808" r="7" fill="none" stroke="#B8BECC" stroke-width="3"/><circle cx="620.0" cy="392.0" r="40.0" fill="#F6F8FC" stroke="#C7CCD8" stroke-width="5.2" stroke-dasharray="22.0 18.0" stroke-linecap="round"/><path d="M603.2,392.0 H636.8 M620.0,375.2 V408.8" stroke="#C7CCD8" stroke-width="4.0" stroke-linecap="round" opacity="0.55"/><circle cx="620.0" cy="478.0" r="40.0" fill="#F6F8FC" stroke="#C7CCD8" stroke-width="5.2" stroke-dasharray="22.0 18.0" stroke-linecap="round"/><path d="M603.2,478.0 H636.8 M620.0,461.2 V494.8" stroke="#C7CCD8" stroke-width="4.0" stroke-linecap="round" opacity="0.55"/><circle cx="620.0" cy="564.0" r="40.0" fill="#F6F8FC" stroke="#C7CCD8" stroke-width="5.2" stroke-dasharray="22.0 18.0" stroke-linecap="round"/><path d="M603.2,564.0 H636.8 M620.0,547.2 V580.8" stroke="#C7CCD8" stroke-width="4.0" stroke-linecap="round" opacity="0.55"/><circle cx="620.0" cy="650.0" r="40.0" fill="#F6F8FC" stroke="#C7CCD8" stroke-width="5.2" stroke-dasharray="22.0 18.0" stroke-linecap="round"/><path d="M603.2,650.0 H636.8 M620.0,633.2 V666.8" stroke="#C7CCD8" stroke-width="4.0" stroke-linecap="round" opacity="0.55"/><rect x="736" y="10" width="28" height="120" rx="14" fill="#F6CBA6" stroke="#E0AE85" stroke-width="3"/><rect x="766" y="10" width="28" height="120" rx="14" fill="#F6CBA6" stroke="#E0AE85" stroke-width="3"/><rect x="796" y="10" width="28" height="120" rx="14" fill="#F6CBA6" stroke="#E0AE85" stroke-width="3"/><rect x="826" y="10" width="28" height="120" rx="14" fill="#F6CBA6" stroke="#E0AE85" stroke-width="3"/><g transform="rotate(-32 735 144)"><rect x="721" y="78" width="28" height="86" rx="14" fill="#F6CBA6" stroke="#E0AE85" stroke-width="3"/></g><rect x="729" y="102" width="132" height="96" rx="34" fill="#F6CBA6" stroke="#E0AE85" stroke-width="3"/><rect x="751" y="222" width="88" height="64" rx="14" fill="#fff" stroke="#3A3A4A" stroke-width="3"/><text x="795" y="270" text-anchor="middle" font-size="46" font-weight="700" fill="#3A3A4A" font-family="Fredoka, sans-serif">5</text><rect x="721" y="312" width="148" height="512" rx="22" fill="#fff" stroke="#3A3A4A" stroke-width="4"/><rect x="737" y="342" width="116" height="448" rx="12" fill="#F1ECFA"/><circle cx="795" cy="808" r="7" fill="none" stroke="#B8BECC" stroke-width="3"/><circle cx="795.0" cy="392.0" r="40.0" fill="#F6F8FC" stroke="#C7CCD8" stroke-width="5.2" stroke-dasharray="22.0 18.0" stroke-linecap="round"/><path d="M778.2,392.0 H811.8 M795.0,375.2 V408.8" stroke="#C7CCD8" stroke-width="4.0" stroke-linecap="round" opacity="0.55"/><circle cx="795.0" cy="478.0" r="40.0" fill="#F6F8FC" stroke="#C7CCD8" stroke-width="5.2" stroke-dasharray="22.0 18.0" stroke-linecap="round"/><path d="M778.2,478.0 H811.8 M795.0,461.2 V494.8" stroke="#C7CCD8" stroke-width="4.0" stroke-linecap="round" opacity="0.55"/><circle cx="795.0" cy="564.0" r="40.0" fill="#F6F8FC" stroke="#C7CCD8" stroke-width="5.2" stroke-dasharray="22.0 18.0" stroke-linecap="round"/><path d="M778.2,564.0 H811.8 M795.0,547.2 V580.8" stroke="#C7CCD8" stroke-width="4.0" stroke-linecap="round" opacity="0.55"/><circle cx="795.0" cy="650.0" r="40.0" fill="#F6F8FC" stroke="#C7CCD8" stroke-width="5.2" stroke-dasharray="22.0 18.0" stroke-linecap="round"/><path d="M778.2,650.0 H811.8 M795.0,633.2 V666.8" stroke="#C7CCD8" stroke-width="4.0" stroke-linecap="round" opacity="0.55"/><circle cx="795.0" cy="736.0" r="40.0" fill="#F6F8FC" stroke="#C7CCD8" stroke-width="5.2" stroke-dasharray="22.0 18.0" stroke-linecap="round"/><path d="M778.2,736.0 H811.8 M795.0,719.2 V752.8" stroke="#C7CCD8" stroke-width="4.0" stroke-linecap="round" opacity="0.55"/>
</svg>
